<svg xmlns="http://www.w3.org/2000/svg" viewBox="0 0 139.62 85.4"><defs><style>.cls-1{fill:#fff;}.cls-2{fill:#4cd137;}.cls-3{fill:none;}</style></defs><g id="Layer_2" data-name="Layer 2"><g id="Layer_1-2" data-name="Layer 1"><circle class="cls-1" cx="43" cy="42.5" r="27.5"/><path class="cls-2" d="M76,16A42.7,42.7,0,1,0,85.4,42.7,42.64,42.64,0,0,0,76,16ZM42.7,66.13A23.43,23.43,0,1,1,66.13,42.7,23.42,23.42,0,0,1,42.7,66.13Z"/><path class="cls-2" d="M125.91,59.27l13.63,13.62A42.71,42.71,0,0,1,79.23,73,40.4,40.4,0,0,1,76,69.39,42.63,42.63,0,0,1,76,16a40,40,0,0,1,3.12-3.5,42.7,42.7,0,0,1,60.47.08L126,26.21a23.43,23.43,0,1,0-.08,33.06Z"/><line class="cls-3" x1="139.54" y1="72.89" x2="125.91" y2="59.27"/></g></g></svg>